<svg t="1631375608203" class="icon" viewBox="0 0 1024 1024" version="1.1" xmlns="http://www.w3.org/2000/svg" p-id="43776" width="200" height="200"><path d="M920.6272 1003.9808a67.584 67.584 0 0 1-47.616 20.0192H118.784a67.6864 67.6864 0 0 1-65.6384-69.632V68.8128A68.1984 68.1984 0 0 1 120.4224 0.0512H738.816l201.3696 204.9024V955.904c0.0512 18.0224-6.9632 35.2768-19.5584 48.0256z" fill="#5DE2E2" p-id="43777"></path><path d="M938.3936 205.056h-132.3008a67.584 67.584 0 0 1-67.072-68.1984V0l199.3728 205.056z" fill="#FFFFFF" opacity=".5" p-id="43778"></path><path d="M629.248 534.0672l-49.5104 67.1744-139.264-205.6192-220.3136 302.592h552.96l-143.872-164.1472zM611.84 384c0 32.256 25.6512 58.1632 57.6 58.1632S727.04 416.256 727.04 384c0-32.256-25.6512-58.1632-57.6-58.1632-31.9488-0.4096-57.6 25.9072-57.6 58.1632z" fill="#FFFFFF" p-id="43779"></path></svg>