<svg t="1637718526951" class="icon" viewBox="0 0 1024 1024" version="1.1" xmlns="http://www.w3.org/2000/svg" p-id="4753" width="200" height="200"><path d="M444.3136 805.5296l55.1936 55.1936a42.6496 42.6496 0 0 1-60.3648 60.3136l-128-128a42.7008 42.7008 0 0 1 0-60.3136l128-128a42.6496 42.6496 0 0 1 60.3648 60.3136l-55.1936 55.1936H640a213.3504 213.3504 0 0 0 159.0272-355.584 42.6496 42.6496 0 0 1 63.5904-56.8832A298.6496 298.6496 0 0 1 640 805.5296z m135.3728-597.2992l-55.1936-55.1936A42.6496 42.6496 0 0 1 583.68 91.648l1.0752 1.0752 128 128a42.7008 42.7008 0 0 1 0 60.3136l-128 128a42.6496 42.6496 0 1 1-61.44-59.2896c0.3072-0.3584 0.6656-0.6656 1.024-1.024l55.1936-55.1936H384a213.3504 213.3504 0 0 0-159.0272 355.584 42.6496 42.6496 0 0 1-63.5392 56.8832A298.5984 298.5984 0 0 1 384 208.2304z" p-id="4754"></path></svg>