<svg t="1635478252225" class="icon" viewBox="0 0 1408 1024" version="1.1" xmlns="http://www.w3.org/2000/svg" p-id="7822" width="200" height="200"><path d="M1303.9583333333333 670.6666666666666v-16.875l-135-478.125C1152.0833333333333 96.91666666666667 1078.9583333333333 40.66666666666667 1011.4583333333334 40.66666666666667H392.7083333333333c-67.5 0-140.625 56.25-163.125 129.375l-135 478.125v16.875C88.95833333333333 693.1666666666666 83.33333333333333 715.6666666666666 83.33333333333333 743.7916666666666c0 106.875 90 196.875 196.875 196.875h843.75c106.875 0 196.875-90 196.875-196.875 0-28.125-5.625-50.625-16.875-73.125z m-675-438.75h22.5C668.3333333333334 198.16666666666666 702.0833333333334 181.29166666666666 741.4583333333334 181.29166666666666c50.625 0 101.25 39.375 101.25 90 33.75 11.25 56.25 45 56.25 78.75 0 50.625-45 90-101.25 90h-22.5c-16.875 0-28.125-11.25-28.125-28.125s11.25-28.125 28.125-28.125h22.5c22.5 0 45-16.875 45-33.75s-11.25-28.125-33.75-33.75c-16.875-5.625-28.125-22.5-22.5-39.375v-5.625c0-16.875-16.875-33.75-45-33.75-22.5 0-45 11.25-45 28.125-5.625 16.875-22.5 28.125-39.375 22.5-11.25-5.625-16.875-5.625-28.125-5.625-39.375 0-67.5 22.5-67.5 50.625s28.125 50.625 67.5 50.625H645.8333333333334c16.875 0 28.125 11.25 28.125 28.125s-11.25 28.125-28.125 28.125h-16.875C561.4583333333334 440.0416666666667 505.2083333333333 400.6666666666667 505.2083333333333 338.7916666666667s56.25-106.875 123.75-106.875zM1123.9583333333333 884.4166666666666H280.2083333333333c-78.75 0-140.625-61.875-140.625-140.625 0-11.25 0-16.875 5.625-28.125v-5.625C156.45833333333334 648.1666666666666 212.70833333333334 603.1666666666666 280.2083333333333 603.1666666666666h843.75c67.5 0 123.75 45 135 112.5 0 11.25 5.625 16.875 5.625 28.125 0 78.75-61.875 140.625-140.625 140.625z" p-id="7823"></path><path d="M617.7083333333334 715.6666666666666H336.4583333333333c-16.875 0-28.125 11.25-28.125 28.125s11.25 28.125 28.125 28.125h281.25c16.875 0 28.125-11.25 28.125-28.125s-11.25-28.125-28.125-28.125z m506.25-56.25c-45 0-84.375 39.375-84.375 84.375s39.375 84.375 84.375 84.375 84.375-39.375 84.375-84.375-39.375-84.375-84.375-84.375z m0 112.5c-16.875 0-28.125-11.25-28.125-28.125s11.25-28.125 28.125-28.125 28.125 11.25 28.125 28.125-11.25 28.125-28.125 28.125z" p-id="7824"></path></svg>