<svg t="1634196174251" class="icon" viewBox="0 0 1024 1024" version="1.1" xmlns="http://www.w3.org/2000/svg" p-id="6517" width="200" height="200"><path d="M872.1 620.5c-31.1-44.9-73.1-78.7-122-98.1 21.9-15.4 39.9-35.6 52.8-59 15.2-27.6 23.2-58.6 23.1-90.2 0-98.9-76.5-179.4-170.7-179.4-8.7 0-16.7 4.6-21 12.1-4.3 7.5-4.3 16.8 0 24.3s12.3 12.1 21 12.1c67.4 0 122.2 58.6 122.2 130.9 0 72.2-54.8 130.8-122.2 130.8-6.4 0-12.6 2.6-17.2 7.1-4.5 4.5-7.1 10.7-7.1 17.2v0.1c0 13.4 10.8 24.3 24.3 24.3C776.5 552.7 875 657.8 875 787c0.6 12.9 11.3 23.1 24.3 23.1 12.9 0 23.6-10.1 24.3-23.1 0.3-59.5-17.7-117.6-51.5-166.5m-250.6-41.2c-25.3-17.9-53.1-32.2-82.4-42.4 61.9-37.5 99.8-104.6 99.8-177.1 0-114.3-92.9-207.3-207.3-207.3-114.3 0-207.2 92.9-207.2 207.3 0 38.9 10.9 76.9 31.5 109.7 17.4 27.8 41.1 51 69.2 68-29.8 10.2-57.9 24.5-83.8 42.8-28.1 19.9-52.9 44.1-73.6 71.6-42.8 56.8-65.9 126.1-65.7 197.2 0.6 12.9 11.3 23.1 24.3 23.1 12.9 0 23.6-10.2 24.3-23.1-0.1-74.4 29.4-145.8 82.1-198.4 52.9-53 122.8-82.3 196.9-82.3 2.4 0.2 5 0 7.4-0.5l1.9-0.5c72.2 1.4 140.9 31 191.6 82.4 52.7 52.6 82.3 124 82.1 198.4 0 13.4 10.9 24.3 24.3 24.3s24.3-10.9 24.3-24.3c0-71.7-22.7-139.9-65.8-197.2-20.9-27.6-45.7-51.8-73.9-71.7M431.8 201.2c87.6 0.1 158.6 71.1 158.7 158.7 0 87.5-71.2 158.7-158.7 158.7-87.5 0-158.7-71.2-158.7-158.7 0.1-87.6 71.1-158.6 158.7-158.7" fill="" p-id="6518"></path></svg>