<?xml version="1.0" standalone="no"?><!DOCTYPE svg PUBLIC "-//W3C//DTD SVG 1.1//EN" "http://www.w3.org/Graphics/SVG/1.1/DTD/svg11.dtd"><svg t="1617696120252" class="icon" viewBox="0 0 1024 1024" version="1.1" xmlns="http://www.w3.org/2000/svg" p-id="5992" xmlns:xlink="http://www.w3.org/1999/xlink" width="200" height="200"><defs><style type="text/css"></style></defs><path d="M385.8944 711.9872V235.8784H179.2v476.1088h206.6944z m0 44.4928H179.2v61.0816l91.7504 94.4128a8.5504 8.5504 0 0 0 2.0992 1.4848c6.8096 3.584 17.408 2.304 21.0944-1.4848l91.7504-94.4128v-61.0816z m0-565.0944V78.3872c0 1.0752-3.6352-1.5872-11.264-1.5872H190.464c-7.6288 0-11.264 2.6624-11.264 1.5872v112.9984h206.6944zM128 78.3872C128 47.2576 157.3376 25.6 190.464 25.6h184.1664c33.1264 0 62.464 21.6576 62.464 52.7872v759.9616l-106.24 109.312c-20.0704 20.6336-55.5008 24.9344-81.7664 11.008a59.392 59.392 0 0 1-14.848-11.008L128 838.3488V78.336z m491.1616 382.208h86.016a24.8832 24.8832 0 0 1 0 49.7152h-86.016v99.5328h135.168a24.8832 24.8832 0 0 1 0 49.7664h-135.168v99.4816h86.016a24.8832 24.8832 0 0 1 0 49.7664h-86.016v88.576c0 6.2976 5.0688 11.3664 11.3664 11.3664h235.52c6.2976 0 11.3664-5.12 11.3664-11.3664V88.1664c0-6.2976-5.12-11.3664-11.3664-11.3664h-235.52c-6.2976 0-11.3664 5.12-11.3664 11.3664v73.8816h86.016a24.8832 24.8832 0 1 1 0 49.7664h-86.016V311.296h135.168a24.8832 24.8832 0 0 1 0 49.7664h-135.168v99.5328zM630.528 25.6h235.52c34.56 0 62.5664 28.0064 62.5664 62.5664v809.2672c0 34.56-28.0064 62.5664-62.5664 62.5664h-235.52a62.5664 62.5664 0 0 1-62.5664-62.5664V88.1664c0-34.56 28.0064-62.5664 62.5664-62.5664z" p-id="5993"></path></svg>