<svg t="1631375698466" class="icon" viewBox="0 0 1024 1024" version="1.1" xmlns="http://www.w3.org/2000/svg" p-id="44663" width="200" height="200"><path d="M502.881 632.295c0-35.725-16.49-59.549-43.06-59.549-26.265 0-42.754 23.813-42.754 59.55 0 35.419 16.489 58.938 42.754 58.938 26.57 0 43.06-23.507 43.06-58.939z m-277.583-0.61c0 38.166 14.964 59.244 41.23 59.244 14.047 0 25.96-6.408 38.165-20.456v-82.141c-12.522-11.302-24.434-15.269-36.945-15.269-23.508 0-42.45 22.287-42.45 58.622z" fill="#327DEA" p-id="44664"></path><path d="M802.07 69.736H333.036c-42.637 0-76.743 34.105-76.743 76.754v264.356H179.54c-19.904 0-36.957 17.053-36.957 36.957V769.01c0 22.757 17.053 39.81 36.957 39.81h76.754v93.806c0 42.637 34.106 76.743 76.743 76.743H978.31c42.638 0 76.743-34.106 76.743-76.743V319.88L802.07 69.736zM308.061 697.032h-0.915c-12.522 12.827-29.927 22.897-48.857 22.897-42.145 0-69.314-32.063-69.314-87.645 0-54.656 34.504-88.561 72.072-88.561 19.235 0 31.452 7.335 45.195 18.93l-1.525-27.791v-62.295h35.114v243.372h-28.706l-3.064-18.907z m687.303 205.605c0 11.372-8.532 19.893-19.893 19.893H333.036c-11.372 0-19.905-8.52-19.905-19.893V808.83h568.533c19.905 0 36.957-17.053 36.957-36.957v-324.07c0-19.904-17.052-36.957-36.957-36.957H313.131V146.49c0-11.372 8.533-19.88 19.905-19.88h446.29l8.532 8.531v113.7c0 48.33 39.808 88.115 88.114 88.115h113.7l5.68 8.532v557.149zM380.73 632.295c0-56.192 37.556-88.56 79.09-88.56s79.09 32.368 79.09 88.56c0 55.583-37.556 87.646-79.09 87.646-41.522 0-79.09-32.063-79.09-87.646z m271.175 58.939c14.048 0 26.57-6.713 36.64-15.269l14.354 23.203c-15.269 13.743-35.115 20.76-54.35 20.76-45.501 0-80.31-32.062-80.31-87.644 0-56.193 38.776-88.561 83.056-88.561 21.371 0 36.945 8.555 49.163 19.235l-17.417 22.92c-9.166-8.25-18.625-13.132-30.232-13.132-28.096 0-48.247 23.813-48.247 59.55 0.012 35.43 19.247 58.938 47.343 58.938z m69.314-143.216h37.86l20.151 33.894c4.883 9.166 10.387 18.625 15.88 28.096h1.22c4.577-9.47 9.471-18.93 14.048-28.096l17.71-33.894h36.64l-50.383 84.277 54.045 83.667h-38.166l-21.982-35.42c-5.492-10.08-11.302-20.456-17.405-29.927h-1.525c-5.188 9.471-10.387 19.541-15.574 29.927l-19.54 35.42h-36.946l54.35-87.645-50.383-80.299z" fill="#327DEA" p-id="44665"></path></svg>