<?xml version="1.0" standalone="no"?><!DOCTYPE svg PUBLIC "-//W3C//DTD SVG 1.1//EN" "http://www.w3.org/Graphics/SVG/1.1/DTD/svg11.dtd"><svg t="1617528553279" class="icon" viewBox="0 0 1024 1024" version="1.1" xmlns="http://www.w3.org/2000/svg" p-id="2048" xmlns:xlink="http://www.w3.org/1999/xlink" width="200" height="200"><defs><style type="text/css"></style></defs><path d="M912.7 175.5c28.2-28.2 28.2-79 0-112.9l-39.5-39.5c-28.2-28.2-79-28.2-112.9 0l-56.4 56.4L856.2 232l56.5-56.5z m-90.3 107.2L658.7 119.1 196 576.2l163.7 163.7c-0.1-0.1 462.7-457.2 462.7-457.2zM167.8 627L94.4 852.7l225.7-73.4L167.8 627z m711 282.1H145.2c-33.9 0-56.4 22.6-56.4 56.4 0 33.9 22.6 56.4 56.4 56.4h733.6c33.9 0 56.4-22.6 56.4-56.4 0-28.1-22.5-56.4-56.4-56.4z" p-id="2049"></path></svg>