<svg t="1638150133080" class="icon" viewBox="0 0 1024 1024" version="1.1" xmlns="http://www.w3.org/2000/svg" p-id="29704" width="200" height="200"><path d="M512 938.666667c235.648 0 426.666667-191.018667 426.666667-426.666667S747.648 85.333333 512 85.333333 85.333333 276.352 85.333333 512s191.018667 426.666667 426.666667 426.666667z m0 85.333333C229.248 1024 0 794.752 0 512S229.248 0 512 0s512 229.248 512 512-229.248 512-512 512z" p-id="29705"></path><path d="M320 298.666667a64 64 0 1 0 0.042667 128.042666A64 64 0 0 0 320 298.666667zM704 298.666667a64 64 0 1 0 0.042667 128.042666A64 64 0 0 0 704 298.666667zM512 793.6c127.488 0 230.4-102.912 230.4-230.4H281.6c0 127.488 102.912 230.4 230.4 230.4z" p-id="29706"></path></svg>