<svg t="1638096648206" class="icon" viewBox="0 0 1078 1024" version="1.1" xmlns="http://www.w3.org/2000/svg" p-id="30787" width="200" height="200">
<path d="M329.835789 652.126316 329.835789 652.126316 329.835789 652.126316Z" p-id="30788"></path>
<path d="M288.875789 699.553684c0 0 54.972632 112.101053 223.124211 112.101053 38.804211 0 73.296842-6.467368 102.4-15.090526 0-5.389474-1.077895-11.856842-1.077895-17.246316 0-19.402105 2.155789-38.804211 6.467368-57.128421-30.181053 15.090526-66.829474 25.869474-108.867368 25.869474-121.802105 0-182.164211-95.932632-182.164211-95.932632C286.72 652.126316 288.875789 699.553684 288.875789 699.553684z" p-id="30789"></path>
<path d="M666.138947 930.223158c-48.505263 18.324211-101.322105 26.947368-154.138947 26.947368-118.568421 0-230.669474-46.349474-314.745263-130.425263C113.178947 742.669474 66.829474 631.646316 66.829474 512c0-118.568421 46.349474-230.669474 130.425263-314.745263 84.075789-84.075789 196.176842-130.425263 314.745263-130.425263 118.568421 0 230.669474 46.349474 314.745263 130.425263 97.010526 97.010526 140.126316 228.513684 128.269474 355.705263 22.635789 9.701053 44.193684 22.635789 62.517895 38.804211 24.791579-156.294737-23.713684-321.212632-143.36-441.936842C777.162105 52.816842 648.892632 0 512 0 375.107368 0 246.837895 52.816842 149.827368 149.827368 52.816842 246.837895 0 375.107368 0 512c0 136.892632 52.816842 265.162105 149.827368 362.172632 97.010526 97.010526 225.28 149.827368 362.172632 149.827368 72.218947 0 143.36-15.090526 208.033684-44.193684C699.553684 966.871579 681.229474 949.625263 666.138947 930.223158z" p-id="30790"></path>
<path d="M363.250526 473.195789c34.492632 0 62.517895-28.025263 62.517895-62.517895 0-34.492632-28.025263-62.517895-62.517895-62.517895-34.492632 0-62.517895 28.025263-62.517895 62.517895C300.732632 445.170526 328.757895 473.195789 363.250526 473.195789z" p-id="30791"></path>
<path d="M684.463158 347.082105c-34.492632 0-62.517895 28.025263-62.517895 62.517895 0 34.492632 28.025263 62.517895 62.517895 62.517895 34.492632 0 62.517895-28.025263 62.517895-62.517895C746.981053 375.107368 718.955789 347.082105 684.463158 347.082105z" p-id="30792"></path>
<path d="M859.082105 565.894737C741.591579 565.894737 646.736842 661.827368 646.736842 779.317895 646.736842 896.808421 741.591579 991.663158 859.082105 991.663158c117.490526 0 213.423158-94.854737 213.423158-213.423158C1072.505263 661.827368 976.572632 565.894737 859.082105 565.894737zM980.884211 797.642105l-102.4 0 0 102.4c0 10.778947-8.623158 18.324211-18.324211 18.324211S840.757895 910.821053 840.757895 900.042105L840.757895 797.642105l-102.4 0c-10.778947 0-18.324211-8.623158-18.324211-18.324211 0-10.778947 8.623158-18.324211 18.324211-18.324211L840.757895 760.993684 840.757895 657.515789c0-10.778947 8.623158-18.324211 18.324211-18.324211s18.324211 8.623158 18.324211 18.324211l0 102.4L980.884211 759.915789c10.778947 0 18.324211 8.623158 18.324211 18.324211C999.208421 789.018947 991.663158 797.642105 980.884211 797.642105z" p-id="30793"></path></svg>