<?xml version="1.0" standalone="no"?><!DOCTYPE svg PUBLIC "-//W3C//DTD SVG 1.1//EN" "http://www.w3.org/Graphics/SVG/1.1/DTD/svg11.dtd"><svg t="1631368972620" class="icon" viewBox="0 0 1024 1024" version="1.1" xmlns="http://www.w3.org/2000/svg" p-id="5350" xmlns:xlink="http://www.w3.org/1999/xlink" width="200" height="200"><defs><style type="text/css"></style></defs><path d="M953.670516 201.69697v775.043878A46.902303 46.902303 0 0 1 907.125062 1024H115.852335a46.902303 46.902303 0 0 1-46.545455-47.259152V47.259152A46.902303 46.902303 0 0 1 115.852335 0h651.636363z" fill="#448AFF" p-id="5351"></path><path d="M953.670516 201.69697H798.519001l155.151515 170.666666V201.69697z" fill="#3D7CE5" p-id="5352"></path><path d="M954.694516 201.69697H814.034153a46.545455 46.545455 0 0 1-46.545455-46.545455V0z" fill="#7EAEFF" p-id="5353"></path><path d="M286.519001 651.636364v-93.090909h434.424243v93.090909H286.519001z m287.185455-124.121212c0.201697-2.07903 0.651636-4.080485 0.651636-6.206061a70.671515 70.671515 0 0 0-141.187879 0c0 2.125576 0.449939 4.12703 0.651637 6.206061h-115.882667c0-2.07903-0.325818-4.111515-0.325818-6.206061a186.290424 186.290424 0 0 1 372.363636 0c0 2.094545-0.248242 4.12703-0.325818 6.206061H573.704456z" fill="#FFFFFF" p-id="5354"></path></svg>