<?xml version="1.0" standalone="no"?><!DOCTYPE svg PUBLIC "-//W3C//DTD SVG 1.1//EN" "http://www.w3.org/Graphics/SVG/1.1/DTD/svg11.dtd"><svg t="1617496519499" class="icon" viewBox="0 0 1024 1024" version="1.1" xmlns="http://www.w3.org/2000/svg" p-id="1133" xmlns:xlink="http://www.w3.org/1999/xlink" width="200" height="200"><defs><style type="text/css"></style></defs><path d="M410.09 885.23h-237.4c-18.85 0-34.13-15.28-34.13-34.13V613.74c2-18.75 18.81-32.32 37.56-30.33 15.99 1.7 28.62 14.34 30.33 30.33v155.78l179.58-179.93c14.4-12.16 35.94-10.35 48.1 4.05 10.76 12.74 10.74 31.4-0.06 44.12L254.4 817.34h155.69c18.73-2.1 35.63 11.38 37.73 30.11s-11.38 35.63-30.11 37.73c-2.53 0.28-5.09 0.28-7.62 0v0.05z m203.6-441.13c-18.85-0.2-33.97-15.63-33.78-34.49 0.09-8.83 3.6-17.29 9.8-23.58L769.34 206.5h-155.6c-18.75-2-32.32-18.81-30.33-37.56 1.7-15.99 14.34-28.62 30.33-30.33h237.35c18.83 0 34.11 15.26 34.13 34.09v237.4c2.1 18.73-11.38 35.63-30.11 37.73s-35.63-11.38-37.73-30.11c-0.28-2.53-0.28-5.09 0-7.62V254.31L637.76 434.15a33.8 33.8 0 0 1-24.07 9.95z" p-id="1134"></path></svg>