<?xml version="1.0" standalone="no"?><!DOCTYPE svg PUBLIC "-//W3C//DTD SVG 1.1//EN" "http://www.w3.org/Graphics/SVG/1.1/DTD/svg11.dtd"><svg t="1631687062160" class="icon" viewBox="0 0 1024 1024" version="1.1" xmlns="http://www.w3.org/2000/svg" p-id="6380" xmlns:xlink="http://www.w3.org/1999/xlink" width="200" height="200"><defs><style type="text/css"></style></defs><path d="M34.486437 1024a27.012414 27.012414 0 0 1-20.715403-9.592644 27.130115 27.130115 0 0 1-5.885057-22.010115l-0.353103-10.416551V27.071264A27.130115 27.130115 0 0 1 34.662989 0a27.130115 27.130115 0 0 1 27.130114 27.071264v942.668506h927.72046a27.188966 27.188966 0 0 1 27.130115 27.130115 27.188966 27.188966 0 0 1-27.130115 27.130115z m671.367356-164.134253a27.247816 27.247816 0 0 1-13.535632-3.589885 27.188966 27.188966 0 0 1-13.535632-23.54023V474.688736a27.542069 27.542069 0 0 1 7.885977-19.185288 26.953563 26.953563 0 0 1 19.185287-7.944827 26.894713 26.894713 0 0 1 19.185287 7.944827 27.306667 27.306667 0 0 1 7.944828 19.185288v358.105747a27.130115 27.130115 0 0 1-13.594483 23.54023 27.071264 27.071264 0 0 1-13.535632 3.589885z m164.134253 0a27.130115 27.130115 0 0 1-27.130115-27.071264V301.491494a26.953563 26.953563 0 0 1 7.944828-19.185287 26.953563 26.953563 0 0 1 19.185287-7.944828 26.953563 26.953563 0 0 1 19.185287 7.944828 26.953563 26.953563 0 0 1 7.944828 19.185287v531.302989a27.130115 27.130115 0 0 1-27.130115 27.130115z m-328.268506 0a27.130115 27.130115 0 0 1-27.071264-27.071264v-208.91954a27.306667 27.306667 0 0 1 7.944827-19.185288 26.835862 26.835862 0 0 1 19.126437-7.944827 27.60092 27.60092 0 0 1 19.244138 7.944827 27.542069 27.542069 0 0 1 7.885977 19.185288v208.91954a27.130115 27.130115 0 0 1-27.130115 27.130115z m-164.075402 0a27.130115 27.130115 0 0 1-27.130115-27.071264V474.688736a27.188966 27.188966 0 0 1 27.130115-27.130115 27.130115 27.130115 0 0 1 27.071264 27.130115v358.105747a27.071264 27.071264 0 0 1-27.071264 27.130115z m-164.134253 0a27.130115 27.130115 0 0 1-27.130115-27.071264v-208.91954a27.60092 27.60092 0 0 1 7.944828-19.185288 27.60092 27.60092 0 0 1 19.185287-7.944827 27.012414 27.012414 0 0 1 19.185287 7.944827 27.60092 27.60092 0 0 1 7.944828 19.185288v208.91954a27.130115 27.130115 0 0 1-27.130115 27.130115z m-70.62069-432.022069a25.482299 25.482299 0 0 1-7.591724-1.118161 27.012414 27.012414 0 0 1-18.891034-20.185747 27.012414 27.012414 0 0 1 8.709885-26.247356l213.274483-194.618851a56.967356 56.967356 0 0 1 38.429425-14.889195 57.085057 57.085057 0 0 1 35.722299 12.594023L561.022529 303.08046 873.872184 45.314943a27.60092 27.60092 0 0 1 19.126437-7.885977 26.777011 26.777011 0 0 1 19.891494 8.651034 27.130115 27.130115 0 0 1 7.238621 19.47954 26.777011 26.777011 0 0 1-8.709885 18.832184l-312.908506 259.825287a57.438161 57.438161 0 0 1-36.369655 13.123679 57.614713 57.614713 0 0 1-35.78115-12.594023L376.525977 224.338391 162.545287 419.545747a28.012874 28.012874 0 0 1-19.773793 8.297931z" fill="#2B3642" p-id="6381"></path></svg>