<?xml version="1.0" standalone="no"?><!DOCTYPE svg PUBLIC "-//W3C//DTD SVG 1.1//EN" "http://www.w3.org/Graphics/SVG/1.1/DTD/svg11.dtd"><svg t="1627088494010" class="icon" viewBox="0 0 1024 1024" version="1.1" xmlns="http://www.w3.org/2000/svg" p-id="16794" xmlns:xlink="http://www.w3.org/1999/xlink" width="200" height="200"><defs><style type="text/css">@font-face { font-family: feedback-iconfont; src: url("//at.alicdn.com/t/font_1031158_1uhr8ri0pk5.eot?#iefix") format("embedded-opentype"), url("//at.alicdn.com/t/font_1031158_1uhr8ri0pk5.woff2") format("woff2"), url("//at.alicdn.com/t/font_1031158_1uhr8ri0pk5.woff") format("woff"), url("//at.alicdn.com/t/font_1031158_1uhr8ri0pk5.ttf") format("truetype"), url("//at.alicdn.com/t/font_1031158_1uhr8ri0pk5.svg#iconfont") format("svg"); }
</style></defs><path d="M837.442954 489.826462V241.333169c0-113.498585-91.687385-205.831877-204.3904-205.831877H204.382523C91.687385 35.509169 0 127.842462 0 241.333169V732.632615c0 21.212554 8.325908 40.794585 23.441723 55.154216a77.422277 77.422277 0 0 0 52.775385 21.133784c17.793969-0.007877 34.477292-6.144 48.348554-17.793969l127.881846-87.276308 1.016123-0.890092a29.585723 29.585723 0 0 1 19.400861-7.301908h360.195939c112.695138 0 204.382523-92.333292 204.382523-205.831876z" fill="" p-id="16795"></path><path d="M888.044308 386.158277v107.898092c0 133.923446-108.378585 242.877046-241.585231 242.877046H376.808369v1.496616c0 82.676185 66.410338 149.700923 148.330339 149.700923h294.541784c10.381785 0 20.409108 3.765169 28.270277 10.602338l104.495262 71.309785c28.049723 24.418462 71.553969 4.308677 71.553969-33.083077v-401.723077c0-78.462031-59.840985-142.714092-135.955692-149.078646z" fill="" p-id="16796"></path></svg>