<svg t="1637160097912" class="icon" viewBox="0 0 1024 1024" version="1.1" xmlns="http://www.w3.org/2000/svg" p-id="6046" width="200" height="200"><path d="M803.2 131.2H680c0-37-30.2-67.2-67.2-67.2H411.2c-37 0-67.2 30.2-67.2 67.2H220.8c-37 0-67.2 30.2-67.2 67.2v694.4c0 37 30.2 67.2 67.2 67.2h582.4c37 0 67.2-30.2 67.2-67.2V198.4c0-37-30.2-67.2-67.2-67.2z m-414.4 0c0-12.3 10.1-22.4 22.4-22.4h201.6c12.3 0 22.4 10.1 22.4 22.4V176c0 12.3-10.1 22.4-22.4 22.4H411.2c-12.3 0-22.4-10.1-22.4-22.4v-44.8z m436.8 761.6c0 12.3-10.1 22.4-22.4 22.4H220.8c-12.3 0-22.4-10.1-22.4-22.4V198.4c0-12.3 10.1-22.4 22.4-22.4H344c0 37 30.2 67.2 67.2 67.2h201.6c37 0 67.2-30.2 67.2-67.2h123.2c12.3 0 22.4 10.1 22.4 22.4v694.4zM708 377.6H517.6c-15.7 0-28 12.3-28 28s12.3 28 28 28H708c15.7 0 28-12.3 28-28s-12.3-28-28-28z m-356.2 12.3L335 373.1l-31.4 32.5 48.2 47 62.7-62.7-31.4-32.5-31.3 32.5zM708 534.4H517.6c-15.7 0-28 12.3-28 28s12.3 28 28 28H708c15.7 0 28-12.3 28-28s-12.3-28-28-28z m-356.2 12.3L335 529.9l-31.4 32.5 48.2 47 62.7-62.7-31.4-32.5-31.3 32.5zM708 691.2H517.6c-15.7 0-28 12.3-28 28s12.3 28 28 28H708c15.7 0 28-12.3 28-28s-12.3-28-28-28z m-356.2 12.3L335 686.7l-31.4 32.5 48.2 47 62.7-62.7-31.3-32.5-31.4 32.5z" p-id="6047"></path></svg>