<svg t="1637159951846" class="icon" viewBox="0 0 1024 1024" version="1.1" xmlns="http://www.w3.org/2000/svg" p-id="2748" width="200" height="200"><path d="M778.271948 63.364143 244.081553 63.364143c-48.493457 0-87.802742 38.624692-87.802742 86.276992l0 722.488968c0 47.64616 39.309284 86.275969 87.802742 86.275969l534.189372 0c48.492434 0 87.802742-38.629809 87.802742-86.275969L866.073666 149.640112C866.074689 101.988836 826.764382 63.364143 778.271948 63.364143L778.271948 63.364143zM838.198805 851.876828c0 44.926212-36.225039 81.337493-80.905658 81.337493L265.064446 933.214321c-44.684712 0-80.908728-36.417421-80.908728-81.337493L184.155718 170.725336c0-44.921095 36.225039-81.338516 80.908728-81.338516l492.229724 0c44.679595 0 80.905658 36.417421 80.905658 81.338516L838.199829 851.876828 838.198805 851.876828zM838.198805 851.876828" p-id="2749"></path><path d="M766.708588 557.391816c7.698333 0 13.942547 6.271844 13.942547 14.007015l0 0c0 7.730055-6.244214 14.000875-13.942547 14.000875L382.642329 585.399707c-7.694239 0-13.936407-6.27082-13.936407-14.000875l0 0c0-7.736195 6.242168-14.007015 13.936407-14.007015L766.708588 557.391816 766.708588 557.391816zM766.708588 557.391816" p-id="2750"></path><path d="M766.708588 687.040618c7.698333 0 13.942547 6.266727 13.942547 14.001899l0 0c0 7.730055-6.244214 14.001899-13.942547 14.001899L382.642329 715.044416c-7.694239 0-13.936407-6.264681-13.936407-14.001899l0 0c0-7.730055 6.242168-14.001899 13.936407-14.001899L766.708588 687.040618 766.708588 687.040618zM766.708588 687.040618" p-id="2751"></path><path d="M766.708588 812.536844c7.698333 0 13.942547 6.271844 13.942547 14.001899l0 0c0 7.735172-6.244214 14.001899-13.942547 14.001899L382.642329 840.540641c-7.694239 0-13.936407-6.266727-13.936407-14.001899l0 0c0-7.730055 6.242168-14.001899 13.936407-14.001899L766.708588 812.536844 766.708588 812.536844zM766.708588 812.536844" p-id="2752"></path><path d="M767.107677 428.268994c4.099365 0 7.42511 6.266727 7.42511 14.001899l0 0c0 7.730055-3.325745 14.002922-7.42511 14.002922l-204.548676 0c-4.099365 0-7.419993-6.272867-7.419993-14.002922l0 0c0-7.735172 3.320629-14.001899 7.419993-14.001899L767.107677 428.268994 767.107677 428.268994zM767.107677 428.268994" p-id="2753"></path><path d="M767.107677 297.585629c4.099365 0 7.42511 6.266727 7.42511 14.002922l0 0c0 7.730055-3.325745 13.999852-7.42511 13.999852l-204.548676 0c-4.099365 0-7.419993-6.269797-7.419993-13.999852l0 0c0-7.736195 3.320629-14.002922 7.419993-14.002922L767.107677 297.585629 767.107677 297.585629zM767.107677 297.585629" p-id="2754"></path><path d="M412.839071 157.708881c0 13.101389-10.567683 23.718191-23.608697 23.718191l-42.644239 0c-13.035898 0-23.608697-10.616802-23.608697-23.718191l0 0c0-13.095249 10.5728-23.712051 23.608697-23.712051l42.644239 0C402.271388 133.99683 412.839071 144.613632 412.839071 157.708881L412.839071 157.708881 412.839071 157.708881zM412.839071 157.708881" p-id="2755"></path><path d="M437.211155 459.873806l-67.618027 80.634482-69.39244-80.634482 48.980551-286.590204 36.328393 0L437.211155 459.873806zM437.211155 459.873806" p-id="2756"></path></svg>