<svg t="1638001044970" class="icon" viewBox="0 0 1024 1024" version="1.1" xmlns="http://www.w3.org/2000/svg" p-id="11394" width="200" height="200">
<g>
<path d="M512 1024C229.229714 1024 0 794.770286 0 512S229.229714 0 512 0 1024 229.229714 1024 512 794.770286 1024 512 1024z" fill="#6C63FF"></path>
 <path d="M512 1024 m204.156343-175.776914c6.290286 0 12.756114-1.2288 19.777828-3.744915a17.261714 17.261714 0 0 0 2.633143-1.199542 45.933714 45.933714 0 0 0 23.844572-39.936v-35.196343c53.833143-38.941257 85.664914-97.806629 85.664914-159.1296 0-15.125943-1.755429-29.930057-5.237029-44.061257a188.240457 188.240457 0 0 0-13.838628-37.595429 17.671314 17.671314 0 0 0-23.493486-8.016457 17.261714 17.261714 0 0 0-8.104228 23.171657c4.973714 10.122971 8.777143 20.450743 11.322514 30.632229 2.779429 11.410286 4.213029 23.493486 4.213028 35.869257 0 52.662857-29.110857 103.394743-77.882514 135.723885a17.261714 17.261714 0 0 0-7.7824 14.394515v44.207543a11.000686 11.000686 0 0 1-4.9152 9.069714c-5.441829 1.726171-8.981943 1.492114-12.288-0.672914l-24.839314-16.120686a18.783086 18.783086 0 0 0-2.048-1.609143l-21.650286-14.336a17.788343 17.788343 0 0 0-12.580571-2.750171c-49.064229 7.811657-96.928914 0.292571-138.386286-21.7088a17.729829 17.729829 0 0 0-23.815314 7.080228 17.232457 17.232457 0 0 0 7.168 23.493486c46.372571 24.576 99.357257 33.645714 153.658514 26.389943l14.101943 9.362285a22.381714 22.381714 0 0 0 4.798171 3.423086l24.224915 15.711086c7.519086 4.944457 16.325486 7.548343 25.453714 7.548343z" fill="#FFF"></path>
 <path d="M339.031771 781.165714c9.186743 0 18.051657-2.633143 24.576-7.138743l35.108572-22.820571c0.789943-0.497371 1.960229-1.2288 3.247543-2.311314l27.092114-17.700572c16.9984 2.516114 33.9968 3.803429 50.614857 3.803429 167.614171 0 303.981714-118.784 303.981714-264.8064 0-145.993143-136.367543-264.8064-303.981714-264.8064-167.614171 0-303.981714 118.784-303.981714 264.8064 0 81.627429 43.593143 159.100343 117.087086 209.042286v56.671085c0 16.559543 9.567086 32.182857 24.078628 39.643429a46.811429 46.811429 0 0 0 22.147657 5.617371z m140.639086-541.110857c148.245943 0 268.843886 103.248457 268.843886 230.136686s-120.597943 230.136686-268.873143 230.136686c-16.881371 0-34.230857-1.492114-51.638857-4.417829a17.846857 17.846857 0 0 0-12.668343 2.633143l-33.792 22.1184a15.740343 15.740343 0 0 0-1.930971 1.462857l-0.760686 0.438857-34.962286 22.762057a11.849143 11.849143 0 0 1-10.503314-0.380343 10.532571 10.532571 0 0 1-5.500343-9.069714v-65.916343a17.261714 17.261714 0 0 0-8.074971-14.628571C251.611429 612.117943 210.826971 542.895543 210.826971 470.162286c0-126.888229 120.597943-230.136686 268.843886-230.136686z m-78.175086 227.7376a29.842286 29.842286 0 0 0-29.988571-29.608228 29.842286 29.842286 0 0 0-29.988571 29.608228c0 16.296229 13.458286 29.608229 29.988571 29.608229a29.842286 29.842286 0 0 0 29.988571-29.608229z m110.3872 5.675886a27.004343 27.004343 0 0 0-27.121371-26.770286 27.004343 27.004343 0 0 0-27.092114 26.770286c0 14.716343 12.170971 26.741029 27.092114 26.741028s27.121371-11.995429 27.121371-26.741028z m99.766858 0a27.004343 27.004343 0 0 0-27.092115-26.770286 27.004343 27.004343 0 0 0-27.092114 26.770286c0 14.716343 12.170971 26.741029 27.092114 26.741028s27.121371-11.995429 27.121372-26.741028z" fill="#FFF"></path>
</g>
</svg>