<svg t="1637751417243" class="icon" viewBox="0 0 1024 1024" version="1.1" xmlns="http://www.w3.org/2000/svg" p-id="39242" width="200" height="200"><path d="M669.866667 187.733333C627.2 98.133333 571.733333 42.666667 512 42.666667c-55.466667 0-110.933333 46.933333-153.6 128 89.6 12.8 187.733333 51.2 285.866667 106.666666s179.2 123.733333 234.666666 192c51.2-76.8 64-149.333333 34.133334-196.266666-29.866667-55.466667-110.933333-76.8-221.866667-64-12.8 0-21.333333-8.533333-25.6-21.333334 4.266667 4.266667 4.266667 4.266667 4.266667 0z m42.666666-21.333333c115.2-8.533333 204.8 21.333333 243.2 89.6 38.4 68.266667 17.066667 162.133333-46.933333 256 64 93.866667 85.333333 187.733333 46.933333 256-38.4 68.266667-128 98.133333-243.2 89.6-51.2 102.4-119.466667 166.4-200.533333 166.4-81.066667 0-149.333333-64-200.533333-166.4-115.2 8.533333-204.8-17.066667-243.2-89.6-38.4-68.266667-21.333333-162.133333 46.933333-256-68.266667-93.866667-85.333333-187.733333-46.933333-256 38.4-68.266667 132.266667-98.133333 243.2-89.6C362.666667 64 430.933333 0 512 0c81.066667 0 149.333333 64 200.533333 166.4zM149.333333 486.4c4.266667 0 4.266667 0 8.533334 4.266667 8.533333 8.533333 12.8 21.333333 4.266666 29.866666-68.266667 89.6-85.333333 170.666667-55.466666 226.133334 25.6 46.933333 93.866667 72.533333 187.733333 68.266666-29.866667-85.333333-51.2-187.733333-51.2-302.933333s17.066667-217.6 51.2-302.933333c-93.866667-4.266667-157.866667 21.333333-187.733333 68.266666-29.866667 51.2-12.8 128 42.666666 209.066667zM341.333333 806.4c89.6-12.8 187.733333-46.933333 281.6-102.4 93.866667-55.466667 174.933333-123.733333 230.4-192-55.466667-68.266667-136.533333-136.533333-230.4-192-93.866667-55.466667-192-89.6-281.6-102.4C307.2 298.666667 290.133333 401.066667 290.133333 512c0 110.933333 17.066667 213.333333 51.2 294.4z m17.066667 42.666667c42.666667 81.066667 98.133333 128 153.6 128 59.733333 0 119.466667-55.466667 162.133333-149.333334 4.266667-8.533333 17.066667-17.066667 25.6-12.8 4.266667-4.266667 8.533333-4.266667 12.8-4.266666 98.133333 8.533333 170.666667-17.066667 200.533334-68.266667 25.6-46.933333 17.066667-119.466667-34.133334-196.266667-55.466667 68.266667-136.533333 136.533333-234.666666 192-93.866667 59.733333-196.266667 98.133333-285.866667 110.933334z m174.933333-247.466667c-51.2 0-89.6-38.4-89.6-89.6 0-51.2 38.4-89.6 89.6-89.6 51.2 0 89.6 38.4 89.6 89.6 0 51.2-38.4 89.6-89.6 89.6z m0-46.933333c25.6 0 42.666667-21.333333 42.666667-42.666667 0-25.6-21.333333-42.666667-42.666667-42.666667-25.6 0-42.666667 21.333333-42.666666 42.666667 0 25.6 17.066667 42.666667 42.666666 42.666667z m0 0" p-id="39243"></path></svg>