<svg t="1631591706644" class="icon" viewBox="0 0 1402 1024" version="1.1" xmlns="http://www.w3.org/2000/svg" p-id="3227" width="200" height="200"><path d="M1214.744629 831.109138a199.180782 199.180782 0 0 1-148.162547 58.426362l-477.614548 1.257984c148.162546-142.431731 263.897064-265.574376 276.756455-271.864295a679.870401 679.870401 0 0 1 64.43673-58.14681c51.297787-58.286587 96.445431-64.856058 141.872627-64.995834a190.374894 190.374894 0 0 1 142.152179 57.727482c77.575673 70.866425 77.855225 206.449133 0 277.595111z m95.886327-368.030174c-58.286587-57.867259-142.291955-102.875127-226.157547-102.595575S936.73019 393.19097 878.024276 432.048694c-19.289086 19.428862-57.867259 45.28742-83.865592 83.865593-32.008701 19.568638-508.225489 504.870866-508.22549 504.870865l703.492544-1.677312a520.246224 520.246224 0 0 0 109.584373-6.709247 372.223454 372.223454 0 0 0 206.309357-91.133944c122.303989-129.432564 121.744885-335.462369 5.311488-458.185685z m0 0" fill="#00A3FF" p-id="3228"></path><path d="M517.402229 432.88735a322.602978 322.602978 0 0 0-200.159214-64.017402 289.476069 289.476069 0 0 0-226.437099 103.853559A333.086177 333.086177 0 0 0 98.074268 937.338888a240.274922 240.274922 0 0 0 174.440431 76.876793l128.733685-123.002869h-70.586874A264.316392 264.316392 0 0 1 181.93986 833.764882c-77.575673-77.296121-77.855225-199.879662 0-283.88503a180.171247 180.171247 0 0 1 141.173747-58.426363c38.857724 0 77.435897 6.150143 129.292788 57.727483 19.568638 25.718782 77.575673 64.296954 97.004535 90.015735h6.429695l77.296121-90.435063c-25.718782-32.288253-90.57484-83.865592-116.433397-115.874294" fill="#00C8DC" p-id="3229"></path><path d="M1103.622719 282.907716C1045.05658 115.316308 877.045844-0.41821 696.315493 0.001118 476.867193 0.699998 303.125641 162.560591 264.966796 369.009724c12.859391 0 32.148477-6.569471 51.577339-6.569471s51.577339 6.429695 71.006202 6.289919A303.174116 303.174116 0 0 1 683.735654 129.15413a313.517539 313.517539 0 0 1 284.304358 179.891696s6.569471 6.429695 6.429695 0c45.28742-6.569471 90.435064-25.998334 129.153012-26.13811" fill="#006EFF" p-id="3230"></path></svg>