<svg t="1636813913136" class="icon" viewBox="0 0 1024 1024" version="1.1" xmlns="http://www.w3.org/2000/svg" p-id="18929" width="200" height="200"><path d="M512 0C229.2352 0 0 229.2352 0 512s229.2352 512 512 512 512-229.2352 512-512S794.7648 0 512 0zM281.1648 334.016h462.4896c3.0848 0 6.016 0.5888 8.8448 1.4336L580.3904 487.9744l-22.848 18.5856-45.1456 36.7232-45.0304-36.6336-22.848-18.5984-172.2112-152.6016a30.848 30.848 0 0 1 8.8576-1.4336z m-31.4624 328.3968V370.688c0-3.3408 0.6656-6.5024 1.6512-9.536l171.4688 146.816-171.3152 164.48a30.6944 30.6944 0 0 1-1.8048-10.0352z m493.952 31.4752H281.1648c-2.9568 0-5.7728-0.5504-8.4864-1.3184l172.9792-166.016 66.7392 54.3104 66.8416-54.3872 172.9152 166.0928a31.104 31.104 0 0 1-8.4992 1.3184z m31.4752-31.4752c0 3.52-0.7168 6.8608-1.8048 10.0352L602.0864 507.8912l171.392-146.752c0.9728 3.0336 1.6512 6.1952 1.6512 9.536v291.7376z" fill="#E49F5E" p-id="18930"></path></svg>