<svg t="1634866675735" class="icon" viewBox="0 0 1275 1024" version="1.1" xmlns="http://www.w3.org/2000/svg" p-id="9236" width="200" height="200"><path d="M1204.880318 628.98198h-179.935965V513.244489a12.616545 12.616545 0 0 0-12.616546-12.573632h-356.782164V394.460146h179.893052c38.53625 0 69.820132-31.240969 69.820132-69.777219V69.820132c0-38.579164-31.283882-69.777219-69.820132-69.777219h-395.747548c-38.53625 0-69.820132 31.198055-69.820133 69.777219v254.862795c0 38.53625 31.283882 69.777219 69.820133 69.777219h179.935965v106.210711H262.759121a12.573632 12.573632 0 0 0-12.573632 12.573632v115.737491H70.249524c-38.493337 0-69.777219 31.283882-69.777219 69.777219v254.819881c0 38.579164 31.240969 69.777219 69.777219 69.777219h395.747548c38.53625 0 69.777219-31.198055 69.777219-69.777219v-254.819881c0-38.493337-31.240969-69.777219-69.777219-69.777219H286.061107v-92.435504h703.007627v92.435504h-179.893051c-38.53625 0-69.777219 31.283882-69.777219 69.777219v254.819881c0 38.579164 31.240969 69.777219 69.777219 69.777219h395.747548c38.53625 0 69.777219-31.198055 69.777219-69.777219v-254.819881a69.863046 69.863046 0 0 0-69.820132-69.777219" p-id="9237"></path></svg>