<?xml version="1.0" standalone="no"?><!DOCTYPE svg PUBLIC "-//W3C//DTD SVG 1.1//EN" "http://www.w3.org/Graphics/SVG/1.1/DTD/svg11.dtd"><svg t="1631683850177" class="icon" viewBox="0 0 1024 1024" version="1.1" xmlns="http://www.w3.org/2000/svg" p-id="5046" xmlns:xlink="http://www.w3.org/1999/xlink" width="200" height="200"><defs><style type="text/css"></style></defs><path d="M476.08743 0.340175a299.436296 299.436296 0 0 1 60.165957 594.692125 36.066786 36.066786 0 0 1-16.393994 5.573958H507.809808a405.259526 405.259526 0 0 0-407.144836 388.865532 35.574966 35.574966 0 0 1-71.067963-2.295159 471.573231 471.573231 0 0 1 300.501906-421.40761 298.780537 298.780537 0 0 1-165.989187-265.33679 306.075864 306.075864 0 0 1 311.485882-300.092056z m0 68.444924A231.811072 231.811072 0 1 0 716.669289 300.432231 236.23745 236.23745 0 0 0 476.08743 68.785099zM779.868135 679.871217h186.071829a24.590991 24.590991 0 0 1 27.37797 27.37797 24.590991 24.590991 0 0 1-27.37797 27.37797h-186.071829a24.590991 24.590991 0 0 1-27.37797-27.37797 24.590991 24.590991 0 0 1 27.37797-27.37797zM689.865109 815.859396h275.910915a24.590991 24.590991 0 0 1 27.37797 27.377969 24.590991 24.590991 0 0 1-27.37797 27.37797h-276.238795a24.590991 24.590991 0 0 1-27.37797-27.37797 24.590991 24.590991 0 0 1 27.37797-27.377969zM689.865109 946.191646h275.910915a24.590991 24.590991 0 0 1 27.37797 27.37797 24.590991 24.590991 0 0 1-27.37797 27.37797h-276.238795a24.590991 24.590991 0 0 1-27.37797-27.37797 24.590991 24.590991 0 0 1 27.37797-27.37797z" p-id="5047"></path></svg>