<svg t="1634196061034" class="icon" viewBox="0 0 1024 1024" version="1.1" xmlns="http://www.w3.org/2000/svg" p-id="3321" width="200" height="200"><path d="M767.994 383.992c-35.327 0-63.999 28.672-63.999 64s28.672 63.998 64 63.998 63.998-28.671 63.998-63.999-28.671-63.999-63.999-63.999zM512 831.983c-37.376 0-73.47-4.352-108.158-11.744l-150.653 90.558 2.015-148.445C139.72 692.913 64.008 578.1 64.008 447.992 64.008 235.931 264.58 63.998 512 63.998s447.99 171.932 447.99 383.992c0 212.092-200.571 383.992-447.99 383.992zM512 0C229.253 0 0.01 200.604 0.01 447.991c0 141.405 75.039 267.323 191.997 349.4v226.588L416.29 887.885c31.04 5.12 62.975 8.095 95.71 8.095 282.745 0 511.989-200.572 511.989-447.99C1023.989 200.603 794.746 0 511.999 0zM256.005 383.992c-35.328 0-63.998 28.672-63.998 64s28.671 63.998 63.998 63.998 63.999-28.671 63.999-63.999-28.672-63.999-64-63.999z m255.995 0c-35.328 0-64 28.672-64 64s28.672 63.998 64 63.998 63.999-28.671 63.999-63.999-28.672-63.999-64-63.999z" p-id="3322"></path></svg>