<?xml version="1.0" standalone="no"?><!DOCTYPE svg PUBLIC "-//W3C//DTD SVG 1.1//EN" "http://www.w3.org/Graphics/SVG/1.1/DTD/svg11.dtd"><svg t="1631694571547" class="icon" viewBox="0 0 1024 1024" version="1.1" xmlns="http://www.w3.org/2000/svg" p-id="1782" xmlns:xlink="http://www.w3.org/1999/xlink" width="200" height="200"><defs><style type="text/css"></style></defs><path d="M512 0l455.111111 256v512l-455.111111 256-455.111111-256V256l455.111111-256z m0 65.678222L115.256889 288.853333v446.264889L512 958.293333l396.714667-223.175111V288.853333L512 65.678222zM198.968889 457.927111c2.275556 0 4.551111 1.820444 5.347555 2.56l5.973334 5.973333c2.844444 2.816 2.844444 2.816 5.688889 8.476445l67.925333 79.246222v-82.090667c0-5.660444 2.844444-8.476444 5.660444-11.320888 2.844444-2.844444 5.660444-2.844444 11.320889-2.844445s8.476444 2.844444 11.320889 2.844445c2.844444 2.844444 5.660444 5.688889 5.660445 11.320888v107.576889c0 11.320889-5.688889 19.797333-19.825778 19.797334-2.844444 0-5.660444 0-8.476445-2.844445-2.844444 0-5.688889-2.816-5.688888-2.816-2.816-2.844444-5.632-2.844444-5.632-5.660444l-5.688889-5.660445-67.925334-82.090666v79.274666c0 5.660444-2.844444 8.476444-5.660444 11.320889-2.844444 2.844444-5.660444 2.844444-11.320889 2.844445s-8.476444-2.844444-11.320889-2.844445c-2.844444-2.844444-5.660444-5.688889-5.660444-11.320889v-104.732444c0-5.688889 0-8.504889 2.844444-11.320889 2.816-2.844444 2.816-5.688889 5.660445-5.688889 2.332444-2.332444 4.693333-2.730667 8.704-2.816h2.616888c2.844444 0 5.660444 0 8.476445 2.844445z m370.830222 0c2.844444 0 5.660444 0 8.476445 2.844445 2.844444 0 5.688889 2.844444 5.688888 2.844444l5.632 5.660444s2.844444 0 2.844445 5.660445l67.925333 79.246222v-82.090667c0-5.660444 2.844444-8.476444 5.688889-11.320888 2.816-2.844444 5.632-2.844444 11.292445-2.844445 5.688889 0 8.504889 2.844444 11.320888 2.844445 2.844444 2.844444 5.688889 5.688889 5.688889 11.320888v107.576889c0 11.320889-5.688889 19.797333-19.825777 19.797334-2.844444 0-5.688889 0-8.504889-2.844445-2.844444 0-5.660444-2.816-5.660445-2.816-2.844444-2.844444-5.660444-2.844444-5.660444-5.660444l-5.660445-5.660445-65.109333-79.246222v79.246222c0 5.688889-2.844444 8.504889-5.660444 11.320889-2.844444 2.844444-5.660444 2.844444-11.320889 2.844445s-8.476444-2.844444-11.320889-2.844445c-2.844444-2.844444-5.660444-5.660444-5.660445-11.320889v-104.732444c0-5.660444 0-8.476444 2.844445-11.320889 2.844444-2.844444 2.844444-5.660444 5.660444-5.660444 2.844444-2.844444 5.660444-2.844444 11.320889-2.844445zM830.208 455.111111c5.688889 0 8.504889 2.844444 11.320889 2.844445 2.844444 2.816 2.844444 5.660444 2.844444 5.660444 0 2.844444-2.844444 11.320889-8.504889 16.981333l-36.807111 42.439111 36.807111 42.467556c2.844444 2.844444 5.688889 5.688889 5.688889 11.320889 2.816 2.844444 2.816 5.688889 2.816 5.688889 0 2.816 0 2.816-2.844444 5.632l-5.660445 5.688889c-2.844444 2.816-5.660444 2.816-8.476444 2.816-2.844444 0-5.688889 0-8.504889-2.844445-2.844444-2.844444-2.844444-2.844444-5.660444-2.844444-2.844444-2.816-2.844444-5.632-8.504889-11.292445l-31.118222-36.807111-31.146667 39.623111-5.660445 5.688889-2.844444 2.816c-2.816 2.844444-2.816 2.844444-5.632 2.844445-2.844444 0-5.688889 2.816-5.688889 2.816-5.632 0-8.476444-2.844444-11.320889-2.844445-2.816-2.844444-2.816-5.660444-2.816-8.476444-2.844444-5.688889 0-11.320889 5.660445-16.981334l39.623111-42.467555-31.118222-39.623111c-2.844444-2.844444-5.688889-5.688889-5.688889-11.320889-2.816-2.844444-2.816-5.688889-2.816-8.504889 0-2.844444 2.844444-5.660444 5.660444-5.660444 2.844444-2.844444 5.660444-2.844444 11.320889-2.844445 5.688889 0 8.504889 2.844444 11.320889 2.844445l11.320889 11.320888 25.486222 31.146667 28.302222-31.146667 5.660445-5.660444 5.688889-5.660444c2.816-2.844444 2.816-2.844444 5.632-2.844445 2.844444 0 2.844444-2.816 5.688888-2.816z m-384.967111 2.844445l19.825778 39.623111h-31.146667l-5.688889-14.165334h-48.071111l-22.670222 42.467556 19.825778 42.467555h50.915555l17.009778-28.330666h-48.128c-8.476444 0-14.136889-8.476444-14.136889-14.136889 0-8.504889 5.660444-11.320889 11.320889-14.165333l96.227555 2.844444-45.283555 82.090667h-84.906667l-33.991111-70.769778 36.807111-67.925333h82.090667z m87.751111 65.080888v56.604445c0 5.688889-2.844444 8.533333-5.660444 11.349333-2.844444 0-8.504889 2.844444-14.165334 2.844445s-8.476444 0-11.320889-2.844445c-2.844444 0-5.660444-5.688889-5.660444-11.320889v-56.604444h36.807111z m-19.825778-65.080888c8.504889 0 11.320889 0 14.165334 2.816 2.844444 0 5.660444 5.688889 5.660444 11.320888v28.302223h-36.807111v-28.302223c0-5.660444 2.844444-8.476444 5.688889-11.320888 0 0 5.632-2.844444 11.292444-2.844445z" fill="#7C848E" p-id="1783"></path></svg>