<svg t="1636815933601" class="icon" viewBox="0 0 1024 1024" version="1.1" xmlns="http://www.w3.org/2000/svg" p-id="26690" width="200" height="200"><path d="M508.988235 256c-66.258824 0-120.470588 54.211765-120.470588 120.470588v66.258824h240.941177v-66.258824c0-66.258824-54.211765-120.470588-120.470589-120.470588z m3.011765 249.976471c-39.152941 0-69.270588 30.117647-69.270588 69.270588 0 27.105882 15.058824 48.188235 36.141176 60.235294v111.435294c0 18.070588 15.058824 33.129412 33.129412 33.129412 18.070588 0 33.129412-15.058824 33.129412-33.129412V632.470588c21.082353-12.047059 36.141176-33.129412 36.141176-60.235294 0-36.141176-30.117647-66.258824-69.270588-66.258823zM512 6.023529C231.905882 6.023529 6.023529 231.905882 6.023529 512S231.905882 1017.976471 512 1017.976471 1017.976471 792.094118 1017.976471 512 792.094118 6.023529 512 6.023529z m274.070588 761.976471c0 36.141176-27.105882 63.247059-63.247059 63.247059H301.176471c-36.141176 0-63.247059-27.105882-63.247059-63.247059v-265.035294c0-36.141176 27.105882-63.247059 63.247059-63.247059h24.094117v-66.258823c0-102.4 81.317647-183.717647 183.717647-183.717648S692.705882 274.070588 692.705882 376.470588v66.258824h30.117647c36.141176 0 63.247059 27.105882 63.247059 63.247059v262.023529z" fill="#666666" p-id="26691"></path></svg>