<?xml version="1.0" standalone="no"?><!DOCTYPE svg PUBLIC "-//W3C//DTD SVG 1.1//EN" "http://www.w3.org/Graphics/SVG/1.1/DTD/svg11.dtd"><svg t="1631683615999" class="icon" viewBox="0 0 1024 1024" version="1.1" xmlns="http://www.w3.org/2000/svg" p-id="3537" xmlns:xlink="http://www.w3.org/1999/xlink" width="200" height="200"><defs><style type="text/css"></style></defs><path d="M501.4 515.9c131.9 0 239.2-107.3 239.2-239.2S633.3 37.6 501.4 37.6c-131.9 0-239.2 107.3-239.2 239.2s107.3 239.1 239.2 239.1z m0-421.6c100.6 0 182.4 81.8 182.4 182.4S602 459.2 501.4 459.2c-100.6 0-182.4-81.8-182.4-182.4S400.8 94.3 501.4 94.3zM509.5 567h-0.6l-228.5 4.4c-82.6 0.2-152.7 67.2-166.8 159.6-0.1 0.4-0.1 0.7-0.1 1.1L90 941.1c-0.9 8 1.7 16.1 7 22.1 5.4 6 13.1 9.5 21.1 9.5H497c15.7 0 28.4-12.7 28.4-28.4s-12.7-28.4-28.4-28.4H150l19.9-176.8c10-64.3 56.6-110.9 110.9-110.9h0.5l228.7-4.4c15.7-0.3 28.1-13.2 27.8-28.9-0.2-15.5-12.8-27.9-28.3-27.9zM793.7 651.2v-64h89.9c15.7 0 28.4-12.7 28.4-28.4s-12.7-28.4-28.4-28.4h-89.9v-60.8h89.9c15.7 0 28.4-12.7 28.4-28.4s-12.7-28.4-28.4-28.4H765.3c-15.7 0-28.4 12.7-28.4 28.4v209.9c-79.6 13.5-140.5 83-140.5 166.4 0 93.1 75.7 168.8 168.8 168.8S934 910.6 934 817.5c0.1-83.3-60.7-152.8-140.3-166.3z m-28.4 278.5c-61.8 0-112.1-50.3-112.1-112.1s50.3-112.1 112.1-112.1 112.1 50.3 112.1 112.1-50.3 112.1-112.1 112.1z" fill="#555555" p-id="3538"></path></svg>