<svg t="1634357168775" class="icon" viewBox="0 0 1024 1024" version="1.1" xmlns="http://www.w3.org/2000/svg" p-id="3122" width="200" height="200"><path d="M104.565662 287.822101 104.565662 287.822101 104.565662 726.01418C104.565662 816.577275 179.749833 889.972852 272.510711 889.972852L721.356679 889.972852C814.121663 889.972852 889.301727 816.573268 889.301727 726.01418L889.301727 287.822101C889.301727 197.259005 814.117558 123.863428 721.356679 123.863428L272.510711 123.863428C179.745727 123.86443 104.565662 197.264015 104.565662 287.822101L104.565662 287.822101 104.565662 287.822101ZM48.513159 287.822101C48.513159 167.04826 148.781985 69.141398 272.510711 69.141398L721.356679 69.141398C845.066929 69.141398 945.354231 167.030224 945.354231 287.822101L945.354231 726.01418C945.354231 846.788022 845.085407 944.694882 721.356679 944.694882L272.510711 944.694882C148.80046 944.694882 48.513159 846.806058 48.513159 726.01418L48.513159 287.822101 48.513159 287.822101ZM299.783601 486.795179C318.239913 476.301078 336.414997 476.301078 357.550153 494.374418 376.747509 510.790428 582.136846 679.426504 582.136846 679.426504L705.262061 543.197589 707.543696 540.30477C708.576233 538.796739 711.399796 535.497104 715.341084 532.20649 728.770202 520.991939 738.939546 520.991939 757.358909 542.598381L760.239946 545.510237C761.038466 546.205635 761.038466 546.205635 761.695348 546.777786 763.339604 548.210669 763.339604 548.210669 765.807016 550.35999 771.88009 555.65063 771.88009 555.65063 780.483179 563.1457 800.726416 580.781158 800.726416 580.781158 825.018708 601.94271 873.602267 644.266808 873.602267 644.266808 889.797469 658.375177L889.797469 584.266166C889.797469 584.266166 910.922361 603.436712 862.338802 561.112613 838.046511 539.950061 838.046511 539.950061 817.803278 522.315604 809.200184 514.820534 809.200184 514.820534 803.12711 509.529893 800.659703 507.380573 800.659703 507.380573 799.015443 505.94769 798.359589 505.375539 798.359589 505.375539 797.932618 505.003795 797.564146 504.683148 800.442107 507.591997 800.442107 507.591997 760.545806 460.794902 714.62467 460.794902 678.90675 490.622877 670.560251 497.592892 664.603159 504.553886 660.950286 509.885608L663.231921 506.992794 582.13787 608.420734C582.13787 608.420734 413.345034 469.340084 394.483303 453.211655 353.402562 418.082019 309.262191 418.082019 271.575679 439.510104 262.269519 444.800743 255.379449 450.222645 251.066613 454.424092L104.565662 601.940703 104.565662 685.03478 291.359098 492.448546C291.802493 492.04273 295.053029 489.483584 299.783601 486.795179L299.783601 486.795179ZM637.065467 397.474581C683.500814 397.474581 721.144218 360.724688 721.144218 315.391536 721.144218 270.058384 683.500814 233.308491 637.065467 233.308491 590.630116 233.308491 552.986712 270.058384 552.986712 315.391536 552.986712 360.724688 590.629087 397.474581 637.065467 397.474581L637.065467 397.474581 637.065467 397.474581Z" p-id="3123"></path></svg>