<svg t="1634357294927" class="icon" viewBox="0 0 1024 1024" version="1.1" xmlns="http://www.w3.org/2000/svg" p-id="5501" width="200" height="200"><path d="M917.76 169.472h-443.392c-8.704-52.736-56.832-96.768-114.176-96.768H105.728c-56.832 0-100.864 44.032-100.864 96.768v685.056c0 52.736 44.032 96.768 100.864 96.768h812.032c56.832 0 100.864-44.032 100.864-96.768V266.24c0-52.736-43.52-96.768-100.864-96.768z m39.424 689.152c0 22.016-22.016 39.424-44.032 39.424H105.728c-26.112 0-44.032-22.016-44.032-44.032V169.472c0-8.704 4.608-26.112 13.312-30.72 8.704-4.608 17.408-8.704 30.72-13.312h254.464c22.016 0 48.128 22.016 52.736 44.032l8.704 56.832h491.52c26.112-4.608 44.032 17.408 44.032 39.424v592.896z" p-id="5502"></path><path d="M536.32 481.28l-4.608-4.608c-8.704-4.608-13.312-8.704-22.016-8.704-8.704 0-17.408 4.608-22.016 8.704L329.984 634.88c-13.312 8.704-13.312 26.112 0 39.424 8.704 13.312 26.112 13.312 39.424 0l109.568-109.568v228.352c0 13.312 13.312 26.112 30.72 26.112s30.72-8.704 30.72-26.112v-223.744l109.568 105.472c8.704 13.312 26.112 13.312 39.424 0 13.312-8.704 13.312-26.112 0-39.424L536.32 481.28zM864.512 320H158.976c-14.848 0-27.136 12.288-27.136 27.136s12.288 27.136 27.136 27.136h705.536c14.848 0 27.136-12.288 27.136-27.136 0-15.36-12.288-27.136-27.136-27.136z" p-id="5503"></path></svg>