<?xml version="1.0" standalone="no"?><!DOCTYPE svg PUBLIC "-//W3C//DTD SVG 1.1//EN" "http://www.w3.org/Graphics/SVG/1.1/DTD/svg11.dtd"><svg t="1631362900475" class="icon" viewBox="0 0 1024 1024" version="1.1" xmlns="http://www.w3.org/2000/svg" p-id="2261" xmlns:xlink="http://www.w3.org/1999/xlink" width="200" height="200"><defs><style type="text/css"></style></defs><path d="M659.603035 6.676188H134.091703C119.467673 6.676188 129.640912 9.219497 129.640912 31.791369v964.55014c0 6.358274-10.173238 27.658491 4.450791 27.658491H860.842402a45.143744 45.143744 0 0 0 31.791369-27.658491v-762.99286a23.207699 23.207699 0 0 0-7.947842-19.710648L672.637496 6.676188c-2.54331-2.861223-8.901583 0-13.034461 0z" fill="#E9E9E0" p-id="2262"></path><path d="M701.885556 0v229.215771h224.76498z" fill="#D9D7CA" p-id="2263"></path><path d="M66.058173 578.920832m61.675256 0l766.807824 0q61.675256 0 61.675256 61.675256l0 226.354548q0 61.675256-61.675256 61.675257l-766.807824 0q-61.675256 0-61.675256-61.675257l0-226.354548q0-61.675256 61.675256-61.675256Z" fill="#2B569A" p-id="2264"></path><path d="M395.416758 701.317603H333.423588v178.667495H288.597757v-178.667495H225.015019v-37.831729h169.447997zM598.245693 879.985098H542.92871l-38.78547-71.848494a61.357342 61.357342 0 0 1-4.450792-13.988203 97.599503 97.599503 0 0 1-5.086619 14.62403l-39.103384 71.53058h-54.999068l69.305184-108.408568-63.582738-108.090655h56.270723l31.79137 66.126047a111.587706 111.587706 0 0 1 6.676187 17.803167q2.861223-8.901583 6.994101-18.438994l35.606334-65.49022h51.502018l-65.490221 107.454827zM779.77441 701.317603h-61.675256v178.667495h-46.097485v-178.667495h-61.675256v-37.831729h169.447997z" fill="#FFFFFF" p-id="2265"></path><path d="M653.562675 188.204905H542.92871v317.913692h-81.385905v-317.913692H352.180495V121.125116h301.38218z" fill="#2B569A" p-id="2266"></path></svg>