<?xml version="1.0" standalone="no"?><!DOCTYPE svg PUBLIC "-//W3C//DTD SVG 1.1//EN" "http://www.w3.org/Graphics/SVG/1.1/DTD/svg11.dtd"><svg t="1631372851879" class="icon" viewBox="0 0 1024 1024" version="1.1" xmlns="http://www.w3.org/2000/svg" p-id="7941" xmlns:xlink="http://www.w3.org/1999/xlink" width="200" height="200"><defs><style type="text/css"></style></defs><path d="M901.12 287.147L656.96 42.987l-8.107-8.107h-456c-42.026 0-76.053 33.92-76.053 76.053v818.24c0 42.027 33.92 76.054 76.053 76.054H833.28c42.027 0 76.053-33.92 76.053-76.054v-633.92l-8.213-8.106z m-67.84 661.44H192.853c-9.706 0-19.413-8.107-19.413-19.414v-818.24c0-9.706 8.107-19.413 19.413-19.413h415.574v168.213c0 42.027 33.92 76.054 76.053 76.054h168.213V929.28c0 9.6-9.706 19.307-19.413 19.307z" p-id="7942"></path><path d="M516.16 658.24h-64.64v-22.827c-0.533-15.786 2.667-31.466 9.6-45.653a123.952 123.952 0 0 1 32.213-37.227c13.12-9.92 24.747-21.653 34.454-34.986a53.802 53.802 0 0 0 8.64-29.227c0.426-11.093-4.267-21.867-12.8-29.013-10.56-7.787-23.467-11.627-36.587-10.774-31.893 0.427-62.507 12.587-85.867 34.24v-75.84c28.8-15.573 61.12-23.466 93.867-22.826 31.253-1.92 62.08 7.253 87.253 25.813 20.267 16.853 31.68 42.133 30.827 68.48 0.213 18.133-4.267 36.053-12.8 52.053-11.307 19.094-26.133 35.734-43.84 49.067-12.693 9.173-23.787 20.267-33.173 32.853a54.729 54.729 0 0 0-7.36 28.587v17.28z m-32.213 35.84c11.84-0.213 23.253 4.053 32 12.053 8.533 7.254 13.333 18.027 13.226 29.227 0.107 11.093-4.8 21.653-13.226 28.8-8.64 8-20.16 12.373-32 12.053-11.84 0.214-23.254-4.053-32-12.053a37.972 37.972 0 0 1-13.014-28.587c-0.106-11.093 4.694-21.653 13.014-29.013 8.64-8.427 20.16-13.12 32.213-13.013l-0.213 0.533z m0 0" p-id="7943"></path></svg>