<svg t="1634438373834" class="icon" viewBox="0 0 1024 1024" version="1.1" xmlns="http://www.w3.org/2000/svg"
    p-id="22388" width="200" height="200">
    <path
        d="M700.896 703.232c-27.136-25.76-80.32-69.04-130.496-69.04-16.752 0-32.272 4.72-45.024 13.84l-32.048 22.736c-50.08-10.416-101.52-53.392-138.176-115.616-36.608-62.208-48.752-127.328-33.056-175.248l36.144-15.904c46-20.368 60.912-78.656 42.128-164.432C385.36 130.448 334.08 0 247.6 0c-8.24 0-16.72 1.296-24.688 3.824l-61.12 19.424C109.344 40.064 70.128 83.04 59.008 135.904c-32.752 154.928 8.272 345.6 112.656 523.136 104.512 177.552 252.256 307.808 405.216 357.28 52.336 17.088 110.032 5.184 150.832-31.136l47.664-42.208c16.928-14.912 41.552-49.696 16.32-114.016-15.216-38.88-49.984-87.072-90.816-125.728z m39.808 201.984l-47.648 42.176a102.976 102.976 0 0 1-99.824 20.64c-141.216-45.68-278.464-167.632-376.64-334.432C118.432 466.784 79.44 289.152 109.76 146.176c7.392-34.976 33.36-63.408 68.064-74.528l61.04-19.456c2.832-0.88 5.792-1.312 8.752-1.312 40.304 0 85.408 82.352 102.16 159.312 12.352 56.32 7.232 98.48-12.752 107.408l-54.688 24.048-1.44 2.8c-30.416 62.928-19.2 153.28 29.392 235.936 48.656 82.752 122.784 137.456 193.472 142.976l3.168 0.224 48.672-34.56c4.288-2.928 9.456-4.384 14.688-4.128 48.16 0 145.12 90.96 172.96 162.112 7.568 18.928 13.088 44.368-2.528 58.208zM944.352 43.408a28.48 28.48 0 0 0-30.528 6l-56.512 44.912V71.84c0-25.44-19.84-44.912-45.808-44.912H551.92c-25.968 0-45.808 19.472-45.808 44.912V251.52c0 25.44 19.84 44.912 45.808 44.912h259.584c25.968 0 45.808-19.456 45.808-44.912v-23.952l56.512 44.912c9.152 7.488 19.84 10.48 30.528 6 12.224-4.496 19.856-16.48 19.856-31.44V74.864c0-13.488-7.632-25.456-19.84-31.456zM816 242.528c0 8.08-5.68 13.472-14.176 13.472h-241.12c-8.512 0-14.16-5.392-14.16-13.472V80.848c0-8.096 5.648-13.472 14.16-13.472h241.12c8.48 0 14.176 5.376 14.176 13.472v161.68z m102.4-23.472v1.008l-61.088-41.248V141.568L918.4 100.304v118.752z"
        p-id="22389"></path>
</svg>