<svg t="1634437740112" class="icon" viewBox="0 0 1096 1024" version="1.1" xmlns="http://www.w3.org/2000/svg" p-id="7237"
    width="200" height="200">
    <path
        d="M216.944199 672.534323C71.096903 400.933923 74.238904 117.642358 224.105038 27.3281A192.904239 192.904239 0 0 1 334.221207 0.949907 67.078065 67.078065 0 0 1 343.428001 0h1.899814c65.982018 0 126.264593 87.318396 140.293992 203.134009 9.133723 75.48109-4.384187 143.801342-36.096475 182.601398-16.806051 20.60568-37.996289 31.858427-61.670901 32.442986 0 0-2.630512 0.730698-3.50735 1.826745-1.169117 1.607535-2.630512 7.233909-0.730697 18.486656a924.47895 924.47895 0 0 0 114.719566 210.806336 21.774797 21.774797 0 0 0 0.876837 0.949908c4.164978 4.968746 6.86856 4.968746 8.256886 4.968745 4.603397 0 10.22977-3.068931 13.66405-5.407164 15.856144-22.797774 41.942058-35.292707 74.311974-35.292707 43.403454 0 95.209933 22.286285 142.047667 61.086342 85.93007 71.316112 121.295847 167.110604 89.875838 227.612388l-5.845583 11.252747c-20.897959 33.612102-45.449408 62.840017-76.942486 81.838162-29.447124 17.682889-62.840017 26.670472-99.374911 26.670472-143.582132 0-315.734551-140.80548-428.262023-350.4427z m347.373769 12.641073a28.351077 28.351077 0 0 1-5.261025 6.503211c-2.338233 2.192094-23.89382 21.044099-51.58727 21.044099-17.536749 0-33.465963-7.306979-46.399315-21.190238a28.789496 28.789496 0 0 1-3.945768-4.311118A987.684316 987.684316 0 0 1 331.882974 457.416869a30.76238 30.76238 0 0 1-1.315256-4.968746c-5.626374-28.497217-1.753675-51.58727 11.325817-68.61253a60.794063 60.794063 0 0 1 45.157129-23.236192c2.776652 0 11.179677-0.219209 21.044098-12.421864 21.190238-25.866705 30.250892-79.938347 23.309263-137.809619C420.808905 122.903382 377.259312 57.505923 344.816327 57.505923a22.067076 22.067076 0 0 0-3.799629 0.584558 26.816612 26.816612 0 0 1-6.795491 0.438419 141.609248 141.609248 0 0 0-83.007278 18.778935c-119.249893 71.754531-113.185101 331.371486 13.298701 566.94848 101.567004 189.10461 258.082489 321.214785 380.766662 321.214785 26.816612 0 51.075781-6.430141 72.19295-19.144284 23.309262-14.029399 44.864849-37.996289 59.332667-64.301413 1.242186-2.192094 2.776652-4.968746 4.968746-9.352933 14.540888-28.570287-13.88326-98.644213-78.038533-151.839018-36.900243-30.543171-77.380905-48.810618-108.289425-48.810618-10.668189 0-24.697588 2.265163-31.127729 13.152562z m117.277008-206.933638a26.305123 26.305123 0 0 1-4.968745-0.438418 28.935636 28.935636 0 0 1-22.140146-33.831312 44.353361 44.353361 0 0 0-6.576281-32.077637 40.334523 40.334523 0 0 0-26.158983-17.829028 28.935636 28.935636 0 0 1-22.140146-33.758242 27.766519 27.766519 0 0 1 32.150706-23.382332 94.990724 94.990724 0 0 1 61.524761 42.015128c14.540888 22.140146 20.021122 48.956758 15.344656 75.481091a27.985729 27.985729 0 0 1-27.035822 23.82075z m93.163979-2.045954a26.305123 26.305123 0 0 1-5.041815-0.511488 28.935636 28.935636 0 0 1-22.140146-33.758242c11.252747-64.739832-29.520194-126.99529-90.898815-138.832596a28.935636 28.935636 0 0 1-22.140146-33.758242 27.766519 27.766519 0 0 1 32.077637-23.382332c91.337234 17.682889 151.985158 110.262309 135.179107 206.42215a27.985729 27.985729 0 0 1-27.035822 23.82075z m106.68189 31.712288a26.378193 26.378193 0 0 1-4.968746-0.511489 28.935636 28.935636 0 0 1-22.140145-33.758241 255.378907 255.378907 0 0 0-37.557871-184.428144A231.850435 231.850435 0 0 0 666.396461 186.766376a28.935636 28.935636 0 0 1-22.213216-33.758241 27.766519 27.766519 0 0 1 32.150707-23.382332c75.992579 14.687027 141.901527 59.624946 185.816469 126.556871 43.841872 66.931925 60.355644 147.89325 46.399315 227.904667a27.985729 27.985729 0 0 1-27.035821 23.820751z"
        p-id="7238"></path>
</svg>