<?xml version="1.0" standalone="no"?><!DOCTYPE svg PUBLIC "-//W3C//DTD SVG 1.1//EN" "http://www.w3.org/Graphics/SVG/1.1/DTD/svg11.dtd"><svg t="1629457182180" class="icon" viewBox="0 0 1025 1024" version="1.1" xmlns="http://www.w3.org/2000/svg" p-id="1919" xmlns:xlink="http://www.w3.org/1999/xlink" width="200.1953125" height="200"><defs><style type="text/css"></style></defs><path d="M803.542226 582.056718A218.871245 218.871245 0 0 0 655.70814 639.974401l-107.835687-153.593856 305.587777-436.142555A31.99872 31.99872 0 0 0 801.622303 13.75945l-292.468301 415.98336L216.045726 13.75945a31.99872 31.99872 0 0 0-52.477901 36.47854l305.907764 435.50258-104.635815 149.114036a221.111156 221.111156 0 1 0 43.198272 49.918003l100.795969-143.354266 105.275789 149.75401a219.831207 219.831207 0 1 0 189.752409-109.115635zM221.805496 958.041678a156.153754 156.153754 0 1 1 156.153754-155.833766 156.153754 156.153754 0 0 1-156.153754 155.833766z m581.73673 0a156.153754 156.153754 0 1 1 156.153754-155.833766 156.153754 156.153754 0 0 1-156.153754 155.833766z" fill="" p-id="1920"></path></svg>