<svg t="1630984031801" class="icon" viewBox="0 0 1024 1024" version="1.1" xmlns="http://www.w3.org/2000/svg" p-id="6442" width="200" height="200"><path d="M0 343.04l395.190857 174.08A73.142857 73.142857 0 0 1 438.857143 584.192V1024L47.762286 879.177143A73.142857 73.142857 0 0 1 0 810.715429V342.966857z m1024 0v467.602286a73.142857 73.142857 0 0 1-47.762286 68.608L585.142857 1024V584.118857a73.142857 73.142857 0 0 1 43.666286-66.925714L1024 342.966857zM483.254857 12.288a73.142857 73.142857 0 0 1 57.636572 0L1024 219.428571 540.891429 426.496a73.142857 73.142857 0 0 1-57.636572 0L0 219.428571z" p-id="6443"></path></svg>