<?xml version="1.0" standalone="no"?><!DOCTYPE svg PUBLIC "-//W3C//DTD SVG 1.1//EN" "http://www.w3.org/Graphics/SVG/1.1/DTD/svg11.dtd"><svg t="1627087956578" class="icon" viewBox="0 0 1024 1024" version="1.1" xmlns="http://www.w3.org/2000/svg" p-id="2061" xmlns:xlink="http://www.w3.org/1999/xlink" width="200" height="200"><defs><style type="text/css">@font-face { font-family: feedback-iconfont; src: url("//at.alicdn.com/t/font_1031158_1uhr8ri0pk5.eot?#iefix") format("embedded-opentype"), url("//at.alicdn.com/t/font_1031158_1uhr8ri0pk5.woff2") format("woff2"), url("//at.alicdn.com/t/font_1031158_1uhr8ri0pk5.woff") format("woff"), url("//at.alicdn.com/t/font_1031158_1uhr8ri0pk5.ttf") format("truetype"), url("//at.alicdn.com/t/font_1031158_1uhr8ri0pk5.svg#iconfont") format("svg"); }
</style></defs><path d="M242.261333 773.248C131.925333 706.816 64 602.112 64 486.613333 64 285.909333 266.581333 128 512 128s448 157.909333 448 358.613333c0 200.704-202.581333 358.613333-448 358.613334-18.858667 0-37.632-0.938667-56.234667-2.773334l-160.64 104.874667c-26.24 13.909333-40.832 18.133333-63.36 2.816-26.453333-18.090667-25.429333-38.058667-16.256-66.56l26.752-110.336zM149.333333 486.613333c0 90.965333 60.501333 175.914667 161.322667 226.986667l30.122667 15.317333-7.936 32.853334-17.109334 70.314666 119.466667-78.08 15.616 1.962667c20.181333 2.602667 40.618667 3.925333 61.184 3.925333 202.282667 0 362.666667-125.013333 362.666667-273.28S714.282667 213.333333 512 213.333333s-362.666667 125.013333-362.666667 273.28z m614.698667-14.762666l64.597333 91.946666a20.138667 20.138667 0 1 1-32.981333 23.168l-60.928-86.741333-18.218667 17.621333V576a20.138667 20.138667 0 0 1-40.277333 0v-61.397333a20.096 20.096 0 0 1 0-9.472V396.032a20.138667 20.138667 0 0 1 40.277333 0v65.792l82.261334-79.616a20.138667 20.138667 0 0 1 27.989333 28.928l-62.72 60.714667z m-126.208 82.133333a20.138667 20.138667 0 0 1 0 40.277333h-82.432a20.138667 20.138667 0 0 1-20.096-20.138666V396.672a20.138667 20.138667 0 1 1 40.234667 0v157.312h62.293333z m-249.898667-46.592h56.917334l-27.221334-72.832-29.696 72.832z m107.648 20.821333l14.72 39.466667a20.138667 20.138667 0 1 1-37.717333 14.08l-12.714667-34.090667h-88.32l-14.122666 34.688a20.138667 20.138667 0 1 1-37.290667-15.232l70.826667-173.866666a29.696 29.696 0 0 1 27.904-19.072 29.44 29.44 0 0 1 26.752 20.224l44.629333 119.466666a20.010667 20.010667 0 0 1 5.418667 13.653334l-0.085334 0.682666zM353.834667 396.885333c0 11.093333-8.96 20.138667-20.096 20.138667h-48.64v159.402667a20.138667 20.138667 0 0 1-40.32 0V417.024h-49.493334a20.138667 20.138667 0 1 1 0-40.277333h138.453334c11.093333 0 20.096 9.002667 20.096 20.138666z" p-id="2062"></path></svg>