<svg t="1631703071882" class="icon" viewBox="0 0 1024 1024" version="1.1" xmlns="http://www.w3.org/2000/svg" p-id="13954" width="200" height="200"><path d="M0 0h1024v1024H0z" fill="#FFFFFF" p-id="13955"></path><path d="M387.2 278.4L384 176l64-38.4 92.8-60.8h38.4l38.4 41.6 22.4 140.8-28.8 51.2-121.6-3.2z" fill="#FFFFFF" p-id="13956"></path><path d="M265.6 579.2l32-89.6 60.8-73.6 32-64 12.8-22.4 227.2-35.2 44.8 73.6 128 304-44.8 54.4-115.2 192-25.6 6.4-211.2 6.4L259.2 768l-22.4-137.6z" fill="#FFFFFF" p-id="13957"></path><path d="M556.8 345.6s-6.4 0 12.8-6.4c22.4-3.2 22.4-9.6 28.8-16 6.4-6.4 9.6-19.2 9.6-35.2 0-16 6.4-57.6 6.4-70.4 0-12.8-28.8-57.6-38.4-64-9.6-6.4-128-16-128-16l-35.2 28.8-28.8 25.6 6.4 83.2s-6.4 25.6-6.4 35.2c0 9.6 16 22.4 22.4 28.8 6.4 6.4 28.8 32 35.2 38.4 6.4 6.4 9.6 16 28.8 9.6 19.2-6.4 28.8-6.4 41.6-16s44.8-25.6 44.8-25.6z" fill="#F6D330" p-id="13958"></path><path d="M486.4 217.6c3.2-12.8 9.6-35.2 22.4-41.6 9.6-6.4 32-12.8 48-12.8 12.8 0 38.4 16 44.8 25.6 6.4 9.6 6.4 54.4 6.4 54.4l-3.2 35.2h-22.4l-44.8-19.2h-6.4s-6.4 3.2-28.8-9.6c-28.8-12.8-22.4-19.2-16-32z m-48 32l3.2-3.2c9.6-6.4 28.8-12.8 28.8-12.8s19.2-51.2 3.2-70.4c-16-19.2-54.4-16-54.4-16s-38.4 22.4-38.4 32c0 9.6 3.2 41.6 3.2 44.8 0 3.2 6.4 54.4 6.4 54.4l12.8-6.4 19.2-16c6.4 3.2 9.6 0 16-6.4z" fill="#FFFFFF" p-id="13959"></path><path d="M726.4 710.4l22.4 3.2h9.6c16 0 32 3.2 44.8 6.4 9.6 0 25.6 6.4 28.8 19.2 3.2 19.2-3.2 38.4 12.8 48 16 9.6 51.2 35.2 51.2 35.2l9.6 19.2-32 28.8-156.8 92.8-70.4-25.6v-57.6l3.2-76.8-6.4-70.4 12.8-28.8 28.8-9.6 41.6 16zM275.2 675.2s-28.8 6.4-32 6.4c-12.8 3.2-28.8 9.6-28.8 25.6 0 6.4 0 16-3.2 22.4-3.2 6.4-9.6 12.8-9.6 16-3.2 6.4-6.4 12.8-9.6 16-6.4 0-32 3.2-32 3.2h-22.4l-12.8 16 9.6 44.8-3.2 35.2-9.6 38.4 25.6 12.8 195.2 51.2 44.8-12.8 22.4-57.6-3.2-22.4-22.4-41.6c-3.2 0-96-134.4-108.8-153.6z" fill="#F6D330" p-id="13960"></path><path d="M374.4 198.4c-3.2-105.6 38.4-153.6 124.8-153.6 86.4-3.2 140.8 44.8 150.4 102.4 9.6 57.6 3.2 137.6 25.6 176 22.4 41.6 35.2 70.4 73.6 118.4 38.4 48 60.8 92.8 70.4 150.4 9.6 57.6 16 83.2-9.6 115.2-28.8 28.8-76.8 76.8-115.2 22.4-19.2-28.8-19.2-60.8 9.6-67.2 19.2-3.2 35.2-3.2 51.2 3.2s19.2 3.2 0-9.6-22.4 0-16-22.4c6.4-22.4 16-60.8-3.2-102.4-6.4-19.2-35.2-73.6-60.8-86.4-3.2 0-9.6-3.2-3.2 0 6.4 9.6 41.6 60.8 54.4 92.8 9.6 35.2 12.8 67.2 6.4 86.4-6.4 22.4-16 28.8-28.8 28.8s-22.4 6.4-22.4-22.4c0-28.8 3.2-70.4-12.8-105.6-16-35.2-32-57.6-35.2-73.6-3.2-16-12.8-54.4-28.8-76.8-19.2-22.4-25.6-38.4-16-64 9.6-25.6 3.2-32-16-38.4-19.2-6.4-44.8-12.8-51.2-25.6-6.4-12.8-3.2-38.4 12.8-44.8 12.8-6.4 38.4 3.2 38.4 19.2 0 19.2-6.4 25.6-6.4 32 3.2 3.2 16 9.6 22.4 3.2 6.4-6.4 6.4-28.8 0-48s-9.6-35.2-32-38.4c-22.4-3.2-32-3.2-44.8 9.6-9.6 12.8-16 35.2-12.8 54.4 3.2 16-3.2 6.4-12.8 6.4h-19.2c-9.6 0-6.4-6.4-6.4-19.2 0-12.8-3.2-35.2-19.2-44.8-16-9.6-44.8 0-44.8 41.6 0 38.4 12.8 57.6 22.4 44.8 6.4-12.8 3.2-6.4-3.2-12.8s-12.8-32-3.2-38.4c9.6-6.4 19.2-6.4 25.6-3.2 6.4 3.2 12.8 19.2 12.8 28.8 0 9.6-3.2 9.6-12.8 19.2-9.6 6.4-12.8 12.8-25.6 22.4-12.8 6.4-16 25.6-6.4 28.8 9.6 3.2 9.6 3.2 19.2 16 6.4 12.8 22.4 16 54.4 12.8 32-6.4 44.8-12.8 70.4-22.4 19.2-6.4 12.8-6.4 19.2-12.8 6.4-6.4 16 3.2 6.4 9.6-9.6 6.4-28.8 12.8-44.8 19.2-16 6.4-32 22.4-67.2 19.2h-19.2c-9.6 0-16 0-3.2 9.6 9.6 6.4 9.6 9.6 19.2 12.8 9.6 3.2 22.4 3.2 35.2-3.2 16-6.4 51.2-22.4 64-28.8 12.8-6.4 22.4 3.2 9.6 9.6-12.8 6.4-16 6.4-25.6 12.8-9.6 6.4-32 19.2-44.8 32-12.8 12.8-16 12.8-32 12.8s-25.6-16-32-25.6c-6.4-6.4-6.4-12.8-16-22.4-9.6-9.6-9.6-6.4-9.6 3.2 0 9.6-12.8 35.2-22.4 54.4-9.6 16-9.6 38.4-9.6 54.4s-3.2 16-12.8 32c-12.8 16-32 67.2-35.2 83.2-3.2 16-6.4 51.2-6.4 70.4 0 19.2-3.2 22.4-19.2 9.6-12.8-12.8-19.2-28.8-19.2-48 0-16 3.2-28.8 6.4-35.2 3.2-6.4 0-9.6-3.2-3.2-9.6 16-9.6 44.8-6.4 54.4 3.2 9.6 3.2 28.8 28.8 51.2 25.6 25.6 64 57.6 92.8 80 32 22.4 41.6 51.2-3.2 70.4 28.8 38.4 44.8 60.8 32 86.4 25.6-16 16-51.2 3.2-57.6-12.8-9.6-6.4-16 6.4-9.6 9.6 6.4 16 22.4 57.6 19.2 41.6 0 89.6-6.4 115.2-41.6 25.6-38.4 32-6.4 25.6 16-6.4 22.4-22.4 70.4 3.2 67.2 3.2-28.8 9.6-54.4 9.6-86.4 0-32 3.2-44.8 0-92.8-3.2-44.8 16-48 35.2-48 19.2 0 12.8 12.8 0 12.8s-25.6 3.2-25.6 35.2 0 28.8 6.4 57.6 6.4 38.4 0 70.4c-3.2 32-9.6 48 12.8 67.2 22.4 19.2 54.4 12.8 70.4 0 16-12.8 48-41.6 76.8-51.2 28.8-9.6 57.6-16 73.6-32 16-16 12.8-25.6-3.2-35.2-16-9.6-32-3.2-44.8-19.2-12.8-12.8-19.2-44.8-12.8-60.8 3.2-16 9.6-9.6 9.6 3.2s0 22.4 12.8 38.4 22.4 22.4 41.6 32c19.2 12.8 28.8 28.8 6.4 48-22.4 16-35.2 25.6-57.6 32-19.2 6.4-51.2 25.6-70.4 44.8-19.2 19.2-28.8 35.2-67.2 35.2-38.4 0-54.4-9.6-67.2-32-6.4-16-12.8-12.8-28.8-12.8h-124.8c-48 0-60.8 9.6-83.2 25.6-22.4 16-28.8 28.8-67.2 16-38.4-12.8-60.8-28.8-118.4-38.4-60.8-12.8-28.8-6.4-64-12.8s-32-25.6-28.8-38.4c3.2-12.8 16-35.2 6.4-64-9.6-28.8-6.4-57.6 22.4-57.6 28.8 0 54.4 6.4 64-28.8 9.6-35.2 12.8-6.4 9.6 0-3.2 9.6-3.2 35.2-28.8 38.4-25.6 3.2-28.8 0-44.8 0-16 0-22.4 9.6-12.8 28.8 6.4 16 16 35.2 16 51.2-3.2 16-3.2 19.2-12.8 35.2-9.6 12.8-9.6 22.4 9.6 25.6 19.2 3.2 54.4 12.8 86.4 22.4 32 6.4 35.2 6.4 92.8 22.4 57.6 16 73.6-12.8 76.8-44.8 3.2-32-16-60.8-38.4-92.8-19.2-28.8-41.6-64-67.2-96s-41.6-35.2-54.4-28.8c-12.8 6.4-16 6.4-16-12.8 0-19.2-3.2-28.8 12.8-57.6 16-25.6 28.8-54.4 44.8-99.2 16-44.8 28.8-54.4 57.6-89.6 25.6-38.4 16-22.4 32-48 19.2-25.6 12.8-22.4 12.8-60.8-25.6-41.6-28.8-64-28.8-118.4z m-73.6 316.8c3.2 6.4 9.6-6.4 16-9.6 6.4-3.2 6.4-12.8 6.4-19.2 0-3.2-6.4-3.2-6.4 0-3.2 3.2-3.2 9.6-6.4 16-6.4 3.2-16 9.6-9.6 12.8zM633.6 352c9.6 6.4 12.8 12.8 19.2 3.2 3.2-9.6 3.2-16-6.4-19.2-12.8-3.2-16-9.6-22.4-16-6.4-6.4-6.4 3.2-3.2 12.8 6.4 16 9.6 16 12.8 19.2z m-176-96c-6.4 0-12.8 0-16 3.2 0 0 0 6.4 3.2 6.4s6.4-3.2 6.4-3.2 0-3.2 3.2-3.2c0 0 3.2 0 3.2-3.2 3.2 3.2 3.2 0 0 0z m28.8 0c3.2 3.2 6.4 3.2 9.6 6.4 3.2 0 6.4 3.2 6.4 0 3.2-9.6-6.4-6.4-16-6.4zM544 220.8c6.4 0 12.8 9.6 12.8 19.2 0 3.2 3.2 0 6.4 0 3.2-3.2 0-9.6 0-16 0-3.2-6.4-9.6-9.6-9.6-3.2 0-6.4-3.2-9.6 0-3.2 0-6.4 6.4 0 6.4z m-118.4-3.2c-6.4 0-3.2 3.2-3.2 6.4 6.4 3.2 6.4 12.8 9.6 19.2 0 3.2 3.2 0 3.2 0 3.2-6.4 0-12.8-3.2-19.2 3.2 0 0-6.4-6.4-6.4 3.2 0 3.2 0 0 0zM576 99.2c-6.4-3.2-12.8-6.4-16 0-3.2 6.4 0 9.6-3.2 16 0 3.2-3.2 3.2-3.2 3.2-3.2 3.2 0 6.4 0 6.4 3.2 3.2 12.8-3.2 19.2-6.4 3.2-3.2 9.6 0 16-3.2 0 0 3.2-3.2 0-6.4s-9.6-6.4-12.8-9.6z" fill="" p-id="13961"></path><path d="M716.8 716.8c0-3.2 3.2-9.6 6.4-9.6h3.2v16c0 3.2 3.2 3.2 6.4 3.2 6.4-3.2 9.6-9.6 9.6-9.6s0 3.2-3.2 3.2H736V704c0-3.2-3.2-3.2-6.4-3.2-9.6 0-12.8 9.6-12.8 16V704l-6.4 3.2v25.6l6.4-3.2c-3.2-3.2-3.2-9.6 0-12.8z m28.8 3.2c6.4-3.2 9.6-9.6 9.6-9.6s0 3.2-6.4 6.4h-3.2V697.6l6.4-3.2v-3.2l-6.4 3.2v-9.6l-6.4 3.2V716.8c3.2 3.2 6.4 3.2 6.4 3.2z" fill="" p-id="13962"></path></svg>