<svg t="1631700405801" class="icon" viewBox="0 0 1280 1024" version="1.1" xmlns="http://www.w3.org/2000/svg" p-id="6520" width="200" height="200"><path d="M1046.976 755.2c-17.088 17.088-51.2 42.688-110.976 42.688H569.088c110.912-106.688 204.8-196.288 213.312-204.8 8.576-8.576 29.888-29.888 51.2-46.976 42.688-38.4 76.8-42.624 106.688-42.624 42.688 0 76.8 17.024 106.688 42.624 59.712 55.488 59.712 153.6 0 209.088m72.512-277.312a238.336 238.336 0 0 0-174.976-76.8c-59.712 0-110.912 21.312-157.824 55.424-17.088 17.088-42.688 34.176-64 59.776-17.088 17.024-384 375.424-384 375.424 21.312 4.288 46.912 4.288 68.224 4.288h465.088c34.112 0 59.712 0 85.312-4.288a262.272 262.272 0 0 0 157.888-68.224c98.176-93.888 98.176-251.776 4.288-345.6z" fill="#00A3FF" p-id="6521"></path><path d="M522.112 452.288c-46.912-34.176-93.824-51.2-149.312-51.2a238.336 238.336 0 0 0-174.912 76.8 248.576 248.576 0 0 0 4.224 349.888c42.688 38.4 85.376 59.712 136.576 64l98.112-93.888H381.44c-55.488-4.288-89.6-21.312-110.976-42.688a153.408 153.408 0 0 1-4.288-213.312c29.888-29.888 64-42.688 106.688-42.688 25.6 0 64 4.288 102.4 42.688 17.088 17.024 64 51.2 81.088 68.224h4.224l64-64v-4.224c-29.824-29.888-76.8-68.288-102.4-89.6" fill="#00C8DC" p-id="6522"></path><path d="M970.112 345.6c-46.912-128-170.624-217.6-311.424-217.6-166.4 0-298.688 123.712-324.288 277.312 12.8 0 25.6-4.224 42.688-4.224 17.024 0 38.4 4.224 55.424 4.224 21.376-106.624 115.2-183.424 226.176-183.424 93.824 0 174.912 55.488 213.312 136.512 0 0 4.288 4.288 4.288 0 29.888-4.288 64-12.8 93.824-12.8 0 4.288 0 4.288 0 0" fill="#006EFF" p-id="6523"></path></svg>